<svg width="21" height="14" viewBox="0 0 21 14" fill="none" xmlns="http://www.w3.org/2000/svg">
<path d="M19.002 10H9.00195C8.73674 10 8.48238 9.89464 8.29485 9.70711C8.10731 9.51957 8.00195 9.26522 8.00195 9C8.00195 8.73478 8.10731 8.48043 8.29485 8.29289C8.48238 8.10536 8.73674 8 9.00195 8H19.002C19.2672 8 19.5215 8.10536 19.7091 8.29289C19.8966 8.48043 20.002 8.73478 20.002 9C20.002 9.26522 19.8966 9.51957 19.7091 9.70711C19.5215 9.89464 19.2672 10 19.002 10ZM19.002 6H9.00195C8.73674 6 8.48238 5.89464 8.29485 5.70711C8.10731 5.51957 8.00195 5.26522 8.00195 5C8.00195 4.73478 8.10731 4.48043 8.29485 4.29289C8.48238 4.10536 8.73674 4 9.00195 4H19.002C19.2672 4 19.5215 4.10536 19.7091 4.29289C19.8966 4.48043 20.002 4.73478 20.002 5C20.002 5.26522 19.8966 5.51957 19.7091 5.70711C19.5215 5.89464 19.2672 6 19.002 6ZM19.002 2H1.00195C0.736736 2 0.482382 1.89464 0.294846 1.70711C0.107309 1.51957 0.00195312 1.26522 0.00195312 1C0.00195312 0.734784 0.107309 0.48043 0.294846 0.292893C0.482382 0.105357 0.736736 0 1.00195 0H19.002C19.2672 0 19.5215 0.105357 19.7091 0.292893C19.8966 0.48043 20.002 0.734784 20.002 1C20.002 1.26522 19.8966 1.51957 19.7091 1.70711C19.5215 1.89464 19.2672 2 19.002 2ZM1.00195 12H19.002C19.2672 12 19.5215 12.1054 19.7091 12.2929C19.8966 12.4804 20.002 12.7348 20.002 13C20.002 13.2652 19.8966 13.5196 19.7091 13.7071C19.5215 13.8946 19.2672 14 19.002 14H1.00195C0.736736 14 0.482382 13.8946 0.294846 13.7071C0.107309 13.5196 0.00195312 13.2652 0.00195312 13C0.00195312 12.7348 0.107309 12.4804 0.294846 12.2929C0.482382 12.1054 0.736736 12 1.00195 12ZM2.36195 4.57C2.46071 4.47449 2.57809 4.40036 2.70676 4.35223C2.83543 4.30409 2.97265 4.28299 3.10984 4.29023C3.24703 4.29747 3.38126 4.3329 3.50415 4.39432C3.62704 4.45573 3.73596 4.54181 3.82412 4.64718C3.91227 4.75255 3.97776 4.87495 4.01652 5.00676C4.05527 5.13856 4.06645 5.27694 4.04936 5.41325C4.03227 5.54957 3.98727 5.6809 3.91718 5.79905C3.84708 5.91721 3.75339 6.01966 3.64195 6.1L2.56195 7L3.64195 7.9C3.74321 7.98395 3.82691 8.08705 3.88827 8.2034C3.94962 8.31974 3.98742 8.44705 3.99949 8.57803C4.01157 8.70901 3.99768 8.84108 3.95864 8.96668C3.91959 9.09229 3.85616 9.20895 3.77195 9.31C3.67793 9.42288 3.56019 9.51366 3.42711 9.57588C3.29402 9.63811 3.14886 9.67024 3.00195 9.67C2.76705 9.66765 2.54048 9.58269 2.36195 9.43L0.361954 7.77C0.248713 7.67617 0.157564 7.55851 0.0949993 7.42542C0.0324345 7.29232 -3.8147e-06 7.14707 -3.8147e-06 7C-3.8147e-06 6.85293 0.0324345 6.70768 0.0949993 6.57458C0.157564 6.44149 0.248713 6.32383 0.361954 6.23L2.36195 4.57Z" fill="#588559"/>
</svg>
