<svg width="14" height="12" viewBox="0 0 14 12" fill="none" xmlns="http://www.w3.org/2000/svg">
<path d="M11.6673 0.666626H2.33398C1.80355 0.666626 1.29484 0.87734 0.919771 1.25241C0.544698 1.62749 0.333984 2.13619 0.333984 2.66663V9.33329C0.333984 9.86372 0.544698 10.3724 0.919771 10.7475C1.29484 11.1226 1.80355 11.3333 2.33398 11.3333H11.6673C12.1978 11.3333 12.7065 11.1226 13.0815 10.7475C13.4566 10.3724 13.6673 9.86372 13.6673 9.33329V2.66663C13.6673 2.13619 13.4566 1.62749 13.0815 1.25241C12.7065 0.87734 12.1978 0.666626 11.6673 0.666626ZM2.33398 1.99996H11.6673C11.8441 1.99996 12.0137 2.0702 12.1387 2.19522C12.2637 2.32025 12.334 2.48981 12.334 2.66663L7.00065 5.91996L1.66732 2.66663C1.66732 2.48981 1.73756 2.32025 1.86258 2.19522C1.9876 2.0702 2.15717 1.99996 2.33398 1.99996ZM12.334 9.33329C12.334 9.5101 12.2637 9.67967 12.1387 9.8047C12.0137 9.92972 11.8441 9.99996 11.6673 9.99996H2.33398C2.15717 9.99996 1.9876 9.92972 1.86258 9.8047C1.73756 9.67967 1.66732 9.5101 1.66732 9.33329V4.18663L6.65398 7.23329C6.75533 7.2918 6.87029 7.32261 6.98732 7.32261C7.10434 7.32261 7.21931 7.2918 7.32065 7.23329L12.334 4.18663V9.33329Z" fill="#588559"/>
</svg>
