<svg width="14" height="14" viewBox="0 0 14 14" fill="none" xmlns="http://www.w3.org/2000/svg">
<path d="M9.36576 4.99998C9.44876 5.03159 9.53694 5.04742 9.62576 5.04665H12.2924C12.4692 5.04665 12.6388 4.97641 12.7638 4.85139C12.8889 4.72636 12.9591 4.55679 12.9591 4.37998C12.9591 4.20317 12.8889 4.0336 12.7638 3.90858C12.6388 3.78355 12.4692 3.71332 12.2924 3.71332H11.2324L13.4258 1.51998C13.4955 1.46022 13.5522 1.38667 13.5922 1.30396C13.6323 1.22125 13.6547 1.13117 13.6583 1.03935C13.6618 0.94754 13.6464 0.855985 13.6128 0.770435C13.5793 0.684885 13.5285 0.607186 13.4635 0.542217C13.3986 0.477247 13.3209 0.426408 13.2353 0.392892C13.1498 0.359375 13.0582 0.343905 12.9664 0.347451C12.8746 0.350997 12.7845 0.373484 12.7018 0.4135C12.6191 0.453515 12.5455 0.510196 12.4858 0.579983L10.2924 2.76665V1.70665C10.2924 1.52984 10.2222 1.36027 10.0972 1.23525C9.97214 1.11022 9.80257 1.03998 9.62576 1.03998C9.44895 1.03998 9.27938 1.11022 9.15435 1.23525C9.02933 1.36027 8.95909 1.52984 8.95909 1.70665V4.37332C8.95832 4.46213 8.97415 4.55031 9.00576 4.63332C9.03852 4.71521 9.08722 4.78979 9.14901 4.85273C9.21081 4.91567 9.28448 4.96572 9.36576 4.99998ZM11.9591 7.66665C11.8124 7.66665 11.6591 7.61998 11.5124 7.58665C11.2154 7.5212 10.9235 7.43431 10.6391 7.32665C10.3298 7.21414 9.98986 7.21998 9.68463 7.34305C9.3794 7.46613 9.13048 7.69774 8.98576 7.99332L8.83909 8.29332C8.18976 7.9321 7.59308 7.48347 7.06576 6.95998C6.54227 6.43266 6.09364 5.83598 5.73242 5.18665L6.01242 4.99998C6.308 4.85526 6.53961 4.60634 6.66269 4.30111C6.78576 3.99589 6.7916 3.65593 6.67909 3.34665C6.57324 3.0616 6.48638 2.76985 6.41909 2.47332C6.38576 2.32665 6.35909 2.17332 6.33909 2.01998C6.25813 1.5504 6.01217 1.12514 5.6455 0.82081C5.27884 0.516475 4.81555 0.353056 4.33909 0.359983H2.33909C2.05178 0.357286 1.76726 0.416526 1.5049 0.53367C1.24254 0.650815 1.0085 0.823114 0.818711 1.03884C0.628924 1.25456 0.487847 1.50865 0.405083 1.78379C0.322318 2.05894 0.29981 2.34869 0.339091 2.63332C0.694249 5.42624 1.96978 8.02124 3.96419 10.0084C5.95861 11.9956 8.55823 13.2617 11.3524 13.6067H11.6058C12.0974 13.6074 12.572 13.427 12.9391 13.1C13.15 12.9113 13.3185 12.6801 13.4334 12.4215C13.5483 12.163 13.6071 11.8829 13.6058 11.6V9.59998C13.5976 9.13691 13.429 8.69102 13.1287 8.33843C12.8283 7.98584 12.415 7.7484 11.9591 7.66665ZM12.2924 11.6667C12.2923 11.7613 12.272 11.8549 12.2329 11.9411C12.1939 12.0273 12.1369 12.1042 12.0658 12.1667C11.9913 12.231 11.9042 12.279 11.81 12.3077C11.7159 12.3364 11.6168 12.3451 11.5191 12.3333C9.02236 12.0132 6.70325 10.871 4.92757 9.08684C3.15189 7.30271 2.0207 4.97821 1.71242 2.47998C1.70181 2.38233 1.71111 2.28354 1.73976 2.18958C1.7684 2.09562 1.8158 2.00844 1.87909 1.93332C1.94156 1.8622 2.01846 1.80521 2.10468 1.76613C2.19089 1.72705 2.28443 1.70677 2.37909 1.70665H4.37909C4.53412 1.7032 4.68551 1.7539 4.80719 1.85003C4.92887 1.94616 5.01323 2.0817 5.04576 2.23332C5.07242 2.41554 5.10576 2.59554 5.14576 2.77332C5.22277 3.12475 5.32526 3.4701 5.45242 3.80665L4.51909 4.23998C4.43929 4.2766 4.36751 4.32861 4.30786 4.39305C4.24822 4.45748 4.20189 4.53306 4.17154 4.61545C4.14119 4.69783 4.1274 4.7854 4.13099 4.87313C4.13457 4.96086 4.15545 5.04701 4.19242 5.12665C5.15189 7.18182 6.80392 8.83385 8.85909 9.79332C9.0214 9.86 9.20345 9.86 9.36576 9.79332C9.4489 9.76358 9.5253 9.71762 9.59054 9.65811C9.65577 9.5986 9.70853 9.52672 9.74576 9.44665L10.1591 8.51332C10.5037 8.63657 10.8555 8.73898 11.2124 8.81998C11.3902 8.85998 11.5702 8.89332 11.7524 8.91998C11.904 8.95251 12.0396 9.03687 12.1357 9.15855C12.2318 9.28023 12.2825 9.43162 12.2791 9.58665L12.2924 11.6667Z" fill="#148BC6"/>
</svg>
