<svg width="14" height="14" viewBox="0 0 14 14" fill="none" xmlns="http://www.w3.org/2000/svg">
<path d="M11.6673 4.33334H11.0007V2.33334C11.0007 1.80291 10.7899 1.2942 10.4149 0.91913C10.0398 0.544057 9.53108 0.333344 9.00065 0.333344H2.33398C1.80355 0.333344 1.29484 0.544057 0.919771 0.91913C0.544698 1.2942 0.333984 1.80291 0.333984 2.33334V10.3333C0.334641 10.465 0.374243 10.5934 0.447798 10.7026C0.521354 10.8117 0.625572 10.8967 0.747318 10.9467C0.826437 10.984 0.9132 11.0023 1.00065 11C1.08839 11.0005 1.17536 10.9837 1.25659 10.9505C1.33781 10.9173 1.41169 10.8685 1.47398 10.8067L3.34732 8.92668H4.33398V9.88668C4.33398 10.4171 4.5447 10.9258 4.91977 11.3009C5.29484 11.676 5.80355 11.8867 6.33398 11.8867H10.9473L12.5273 13.4733C12.5896 13.5351 12.6635 13.584 12.7447 13.6172C12.8259 13.6504 12.9129 13.6672 13.0007 13.6667C13.0881 13.6689 13.1749 13.6507 13.254 13.6133C13.3757 13.5633 13.4799 13.4784 13.5535 13.3693C13.6271 13.2601 13.6667 13.1316 13.6673 13V6.33334C13.6673 5.80291 13.4566 5.2942 13.0815 4.91913C12.7065 4.54406 12.1978 4.33334 11.6673 4.33334ZM4.33398 6.33334V7.59334H3.07398C2.98625 7.59284 2.89927 7.60965 2.81805 7.64283C2.73682 7.67601 2.66294 7.72489 2.60065 7.78668L1.66732 8.72668V2.33334C1.66732 2.15653 1.73756 1.98696 1.86258 1.86194C1.9876 1.73691 2.15717 1.66668 2.33398 1.66668H9.00065C9.17746 1.66668 9.34703 1.73691 9.47206 1.86194C9.59708 1.98696 9.66732 2.15653 9.66732 2.33334V4.33334H6.33398C5.80355 4.33334 5.29484 4.54406 4.91977 4.91913C4.5447 5.2942 4.33398 5.80291 4.33398 6.33334ZM12.334 11.3933L11.6673 10.7267C11.6056 10.6637 11.5319 10.6136 11.4507 10.5792C11.3694 10.5449 11.2822 10.527 11.194 10.5267H6.33398C6.15717 10.5267 5.9876 10.4564 5.86258 10.3314C5.73756 10.2064 5.66732 10.0368 5.66732 9.86001V6.33334C5.66732 6.15653 5.73756 5.98696 5.86258 5.86194C5.9876 5.73692 6.15717 5.66668 6.33398 5.66668H11.6673C11.8441 5.66668 12.0137 5.73692 12.1387 5.86194C12.2637 5.98696 12.334 6.15653 12.334 6.33334V11.3933Z" fill="#8E24AA"/>
</svg>
