<svg width="10" height="14" viewBox="0 0 10 14" fill="none" xmlns="http://www.w3.org/2000/svg">
<path d="M7.33333 0H2C1.46957 0 0.960859 0.210714 0.585787 0.585787C0.210714 0.960859 0 1.46957 0 2V11.3333C0 11.8638 0.210714 12.3725 0.585787 12.7475C0.960859 13.1226 1.46957 13.3333 2 13.3333H7.33333C7.86377 13.3333 8.37248 13.1226 8.74755 12.7475C9.12262 12.3725 9.33333 11.8638 9.33333 11.3333V2C9.33333 1.46957 9.12262 0.960859 8.74755 0.585787C8.37248 0.210714 7.86377 0 7.33333 0ZM8 11.3333C8 11.5101 7.92976 11.6797 7.80474 11.8047C7.67972 11.9298 7.51015 12 7.33333 12H2C1.82319 12 1.65362 11.9298 1.5286 11.8047C1.40357 11.6797 1.33333 11.5101 1.33333 11.3333V10.6667H8V11.3333ZM8 9.33333H1.33333V2C1.33333 1.82319 1.40357 1.65362 1.5286 1.5286C1.65362 1.40357 1.82319 1.33333 2 1.33333H7.33333C7.51015 1.33333 7.67972 1.40357 7.80474 1.5286C7.92976 1.65362 8 1.82319 8 2V9.33333Z" fill="#588559"/>
</svg>
