<svg width="14" height="14" viewBox="0 0 14 14" fill="none" xmlns="http://www.w3.org/2000/svg">
<path d="M10.4522 13.9993C10.1951 13.9564 9.93612 13.9228 9.68089 13.8686C8.72942 13.6352 7.81735 13.2618 6.97285 12.7651C5.64416 12.0313 4.44121 11.094 3.40717 9.9868C2.14792 8.62563 1.10073 7.1263 0.440141 5.38237C0.184913 4.755 0.0366555 4.08842 0.004752 3.41251C-0.0459182 2.74406 0.19242 2.08495 0.657835 1.59949C1.05194 1.19805 1.4329 0.781674 1.85703 0.41571C2.51199 -0.144439 3.22513 -0.144439 3.85757 0.44185C4.52566 1.06548 5.17124 1.72086 5.79242 2.38744C6.26534 2.8953 6.26534 3.67765 5.79242 4.18551C5.46213 4.55895 5.09617 4.89877 4.74711 5.2554C4.71521 5.28527 4.68143 5.31142 4.62325 5.3637C5.55596 7.04228 6.94658 8.42398 8.63746 9.34636L9.4707 8.508C9.67526 8.26714 9.93237 8.07669 10.2214 7.94785C10.6868 7.7462 11.2273 7.84329 11.5932 8.19058C12.2932 8.85343 12.9745 9.53307 13.6388 10.2333C14.1042 10.7299 14.1211 11.4973 13.6745 12.0127C13.2541 12.5056 12.7887 12.9724 12.3176 13.4242C11.9817 13.7305 11.5557 13.9209 11.1015 13.9639C11.0696 13.9713 11.0377 13.9807 11.0058 13.9919L10.4522 13.9993ZM10.6605 13.1572C11.1278 13.1834 11.5838 13.0041 11.9085 12.668C12.2238 12.3394 12.5466 12.0183 12.8656 11.6934C12.9069 11.6523 12.9463 11.6075 12.982 11.5627C13.2053 11.3386 13.2034 10.9764 12.9801 10.7542C12.9763 10.7505 12.9707 10.7449 12.9651 10.7411C12.708 10.4648 12.4359 10.2034 12.1694 9.93638C11.8222 9.59096 11.4787 9.24366 11.1278 8.90384C10.9214 8.67231 10.5648 8.65177 10.3321 8.85716C10.3227 8.86463 10.3152 8.8721 10.3077 8.88143C10.2552 8.92438 10.2082 8.97292 10.1594 9.02147C9.8254 9.35196 9.4951 9.68618 9.15918 10.0129C8.96025 10.2407 8.62432 10.2967 8.36159 10.1455C8.15703 10.0428 7.95435 9.94012 7.7573 9.82435C6.89028 9.29594 6.10395 8.6443 5.42647 7.88997C4.79778 7.24953 4.27794 6.51387 3.88384 5.70912C3.68491 5.2722 3.72808 5.05935 4.07151 4.72699C4.41494 4.39464 4.78277 4.04174 5.12245 3.68325C5.34202 3.48533 5.36078 3.14924 5.16373 2.92891C5.15435 2.91958 5.14497 2.91024 5.13558 2.90091C5.0943 2.85236 5.05113 2.80755 5.00797 2.76274L3.36025 1.1159C3.00743 0.770471 2.69403 0.766737 2.34121 1.1159C1.9884 1.46506 1.65623 1.77314 1.33531 2.1223C1.17767 2.28474 1.05006 2.47519 0.95998 2.68245C0.819229 3.1287 0.813599 3.60483 0.94309 4.05481C1.09885 4.75313 1.3447 5.42718 1.67499 6.06202C2.23987 7.18231 2.95864 8.21859 3.8069 9.1447C5.26695 10.799 7.11735 12.0687 9.1892 12.8417C9.66025 13.0191 10.1576 13.1236 10.6605 13.1498V13.1572Z" fill="#588559"/>
</svg>
