<svg width="16" height="14" viewBox="0 0 16 14" fill="none" xmlns="http://www.w3.org/2000/svg">
<path d="M14.8442 0.618714C14.6544 0.460818 14.4254 0.357345 14.1814 0.319309C13.9375 0.281273 13.6878 0.310097 13.4589 0.402714L1.51158 5.22605C1.25615 5.33118 1.03872 5.51149 0.888142 5.74306C0.737563 5.97463 0.660953 6.24651 0.668474 6.52262C0.675995 6.79874 0.767293 7.06605 0.930254 7.28907C1.09322 7.5121 1.32014 7.68031 1.58091 7.77138L3.99758 8.61205L5.34425 13.0667C5.3627 13.1261 5.38941 13.1827 5.42358 13.2347C5.42891 13.2427 5.43625 13.248 5.44158 13.2567C5.48087 13.3114 5.52831 13.3597 5.58225 13.4C5.5973 13.4118 5.61287 13.423 5.62891 13.4334C5.69206 13.4753 5.76198 13.506 5.83558 13.524L5.84425 13.5247L5.84825 13.5267C5.8928 13.5357 5.93814 13.5401 5.98358 13.54L5.99558 13.538C6.06386 13.5369 6.13155 13.5252 6.19625 13.5034C6.21158 13.498 6.22425 13.49 6.23891 13.4834C6.28731 13.4635 6.33319 13.438 6.37558 13.4074C6.40935 13.3787 6.44312 13.35 6.47691 13.3214L8.27825 11.3327L10.9649 13.414C11.2014 13.5982 11.4925 13.6984 11.7922 13.6987C12.1064 13.6983 12.4109 13.59 12.6546 13.3918C12.8984 13.1935 13.0665 12.9175 13.1309 12.61L15.3062 1.93205C15.3554 1.69182 15.3385 1.44274 15.2571 1.21142C15.1757 0.980095 15.033 0.775231 14.8442 0.618714ZM6.24758 8.82405C6.15525 8.91619 6.09217 9.03354 6.06625 9.16138L5.85958 10.164L5.33691 8.43538L8.04691 7.02405L6.24758 8.82405ZM11.7822 12.36L8.60691 9.90005C8.47405 9.79752 8.30743 9.74882 8.14027 9.76364C7.9731 9.77847 7.81766 9.85574 7.70491 9.98005L7.12758 10.6167L7.33158 9.62538L12.0536 4.90338C12.1656 4.79066 12.2337 4.64162 12.2455 4.48313C12.2574 4.32464 12.2122 4.16713 12.1182 4.039C12.0242 3.91087 11.8875 3.82054 11.7327 3.78431C11.578 3.74807 11.4154 3.76831 11.2742 3.84138L4.49758 7.36938L2.01425 6.46071L14.0002 1.66671L11.7822 12.36Z" fill="#148BC6"/>
</svg>
