<svg width="14" height="14" viewBox="0 0 14 14" fill="none" xmlns="http://www.w3.org/2000/svg">
<path d="M9.47431 7.47338C10.1279 6.95915 10.605 6.25399 10.8391 5.456C11.0733 4.65802 11.0529 3.80689 10.7808 3.02102C10.5087 2.23516 9.99848 1.55364 9.32102 1.07128C8.64357 0.588922 7.83261 0.329712 7.00097 0.329712C6.16934 0.329712 5.35838 0.588922 4.68093 1.07128C4.00347 1.55364 3.4932 2.23516 3.22112 3.02102C2.94903 3.80689 2.92865 4.65802 3.16282 5.456C3.39698 6.25399 3.87405 6.95915 4.52764 7.47338C3.40769 7.92207 2.4305 8.66627 1.70024 9.62665C0.969973 10.587 0.514016 11.7276 0.380974 12.9267C0.371344 13.0143 0.379052 13.1028 0.403658 13.1874C0.428264 13.272 0.469286 13.3509 0.524382 13.4196C0.635654 13.5584 0.797497 13.6473 0.974308 13.6667C1.15112 13.6862 1.32841 13.6346 1.46719 13.5233C1.60597 13.412 1.69486 13.2502 1.71431 13.0734C1.8607 11.7702 2.4821 10.5666 3.45979 9.69257C4.43748 8.81856 5.70291 8.33539 7.01431 8.33539C8.32571 8.33539 9.59114 8.81856 10.5688 9.69257C11.5465 10.5666 12.1679 11.7702 12.3143 13.0734C12.3324 13.2372 12.4106 13.3885 12.5337 13.4981C12.6568 13.6076 12.8162 13.6677 12.981 13.6667H13.0543C13.2291 13.6466 13.3888 13.5582 13.4987 13.4209C13.6086 13.2835 13.6597 13.1083 13.641 12.9334C13.5073 11.7308 13.0489 10.5874 12.3149 9.62551C11.5809 8.66366 10.5989 7.91969 9.47431 7.47338ZM7.00097 7.00004C6.47356 7.00004 5.95799 6.84364 5.51945 6.55063C5.08092 6.25761 4.73913 5.84113 4.5373 5.35387C4.33546 4.8666 4.28265 4.33042 4.38555 3.81313C4.48844 3.29585 4.74242 2.8207 5.11536 2.44776C5.4883 2.07482 5.96345 1.82084 6.48073 1.71795C6.99802 1.61505 7.53419 1.66786 8.02146 1.8697C8.50873 2.07153 8.92521 2.41332 9.21823 2.85186C9.51124 3.29039 9.66764 3.80596 9.66764 4.33338C9.66764 5.04062 9.38669 5.7189 8.88659 6.21899C8.3865 6.71909 7.70822 7.00004 7.00097 7.00004Z" fill="#0A311C"/>
</svg>
