<svg width="14" height="14" viewBox="0 0 14 14" fill="none" xmlns="http://www.w3.org/2000/svg">
<path d="M9.47333 7.47338C10.1269 6.95915 10.604 6.25399 10.8382 5.456C11.0723 4.65802 11.0519 3.80689 10.7799 3.02102C10.5078 2.23516 9.9975 1.55364 9.32005 1.07128C8.64259 0.588922 7.83163 0.329712 7 0.329712C6.16836 0.329712 5.35741 0.588922 4.67995 1.07128C4.0025 1.55364 3.49223 2.23516 3.22014 3.02102C2.94805 3.80689 2.92767 4.65802 3.16184 5.456C3.396 6.25399 3.87307 6.95915 4.52666 7.47338C3.40672 7.92207 2.42952 8.66627 1.69926 9.62665C0.968996 10.587 0.51304 11.7276 0.379998 12.9267C0.370368 13.0143 0.378075 13.1028 0.402681 13.1874C0.427287 13.272 0.468309 13.3509 0.523405 13.4196C0.634677 13.5584 0.79652 13.6473 0.973331 13.6667C1.15014 13.6862 1.32744 13.6346 1.46621 13.5233C1.60499 13.412 1.69388 13.2502 1.71333 13.0734C1.85972 11.7702 2.48112 10.5666 3.45881 9.69257C4.4365 8.81856 5.70193 8.33539 7.01333 8.33539C8.32473 8.33539 9.59016 8.81856 10.5679 9.69257C11.5455 10.5666 12.1669 11.7702 12.3133 13.0734C12.3315 13.2372 12.4096 13.3885 12.5327 13.4981C12.6559 13.6076 12.8152 13.6677 12.98 13.6667H13.0533C13.2281 13.6466 13.3878 13.5582 13.4977 13.4209C13.6076 13.2835 13.6587 13.1083 13.64 12.9334C13.5063 11.7308 13.0479 10.5874 12.3139 9.62551C11.5799 8.66366 10.5979 7.91969 9.47333 7.47338ZM7 7.00004C6.47258 7.00004 5.95701 6.84364 5.51848 6.55063C5.07995 6.25761 4.73815 5.84113 4.53632 5.35387C4.33449 4.8666 4.28168 4.33042 4.38457 3.81313C4.48746 3.29585 4.74144 2.8207 5.11438 2.44776C5.48732 2.07482 5.96247 1.82084 6.47976 1.71795C6.99704 1.61505 7.53322 1.66786 8.02049 1.8697C8.50776 2.07153 8.92423 2.41332 9.21725 2.85186C9.51027 3.29039 9.66667 3.80596 9.66667 4.33338C9.66667 5.04062 9.38571 5.7189 8.88562 6.21899C8.38552 6.71909 7.70724 7.00004 7 7.00004Z" fill="#878787"/>
</svg>
