<svg width="14" height="16" viewBox="0 0 14 16" fill="none" xmlns="http://www.w3.org/2000/svg">
<path d="M13.8573 9.26282C14.3128 5.24822 13.6383 2.71389 12.4216 1.56771L12.4221 1.56708C10.4585 -0.390884 3.82609 -0.680629 1.4767 1.65482C0.42162 2.79694 0.0499406 4.47359 0.00907375 6.54895C-0.0317931 8.62525 -0.0801175 12.5143 3.38253 13.5693H3.38581L3.38253 15.1807C3.38253 15.1807 3.35896 15.8336 3.75749 15.9647C4.21299 16.1193 4.41941 15.8161 5.83662 14.0446C8.2066 14.2597 10.0265 13.7667 10.2332 13.6949C10.7117 13.5269 13.4194 13.1519 13.8573 9.26282ZM6.06989 12.9109C6.06989 12.9109 4.57005 14.8685 4.10351 15.3768C3.95078 15.542 3.78344 15.5267 3.78582 15.1989C3.78582 14.9837 3.79716 12.524 3.79716 12.524C0.861609 11.6435 1.03462 8.33176 1.06654 6.59922C1.09846 4.86606 1.40123 3.44668 2.29463 2.49096C4.35587 0.468049 10.1703 0.920464 11.6519 2.37762C13.4629 4.05802 12.8183 8.80603 12.8222 8.96777C12.4499 12.2143 10.2556 12.42 9.85231 12.5605C9.68019 12.6205 8.07953 13.0514 6.06989 12.9109Z" fill="#8E24AA"/>
<path d="M6.90047 2.87094C6.65557 2.87094 6.65557 3.27059 6.90047 3.27402C8.80123 3.28932 10.3667 4.67623 10.384 7.21993C10.384 7.48845 10.7595 7.48501 10.7563 7.2165H10.7557C10.7351 4.47547 9.02584 2.88624 6.90047 2.87094Z" fill="#8E24AA"/>
<path d="M9.4 6.79807C9.39433 7.06315 9.76899 7.07596 9.77227 6.80744C9.80359 5.29596 8.91317 4.05111 7.24002 3.91998C6.99512 3.90124 6.96946 4.30433 7.21407 4.32306C8.66499 4.43827 9.42923 5.47455 9.4 6.79807Z" fill="#8E24AA"/>
<path d="M8.99888 8.51728C8.68447 8.32682 8.3644 8.44547 8.23195 8.63249L7.95513 9.00748C7.81464 9.19793 7.55154 9.17264 7.55154 9.17264C5.63349 8.64186 5.12072 6.54089 5.12072 6.54089C5.12072 6.54089 5.09715 6.25646 5.27285 6.10409L5.61917 5.80435C5.79218 5.66042 5.90166 5.31416 5.72536 4.97383C5.25435 4.08337 4.93816 3.77614 4.77708 3.54041C4.60794 3.31873 4.3532 3.26877 4.08861 3.41864H4.08294C3.53258 3.75553 2.92972 4.38654 3.12272 5.03597C3.45174 5.72068 4.05639 7.90345 5.98309 9.55262C6.88872 10.3326 8.32174 11.1319 8.92997 11.3164L8.93564 11.3258C9.53521 11.5349 10.1181 10.8796 10.4292 10.286V10.2814C10.5673 9.99442 10.5214 9.72247 10.3197 9.54482C9.96238 9.17951 9.42276 8.77643 8.99888 8.51728Z" fill="#8E24AA"/>
<path d="M7.50302 5.4069C8.11453 5.44405 8.41104 5.77845 8.44296 6.46534C8.4543 6.73386 8.82657 6.71513 8.81524 6.44661C8.77437 5.55021 8.32782 5.05065 7.52331 5.00381C7.2784 4.98851 7.25543 5.3916 7.50302 5.4069Z" fill="#8E24AA"/>
</svg>
