<svg width="14" height="14" fill="none" xmlns="http://www.w3.org/2000/svg"><path d="M9.366 5a.713.713 0 00.26.047h2.666a.667.667 0 100-1.334h-1.06l2.194-2.193a.667.667 0 10-.94-.94l-2.194 2.187v-1.06a.667.667 0 10-1.333 0v2.666A.667.667 0 009.366 5zm2.593 2.667c-.147 0-.3-.047-.447-.08a6.29 6.29 0 01-.873-.26 1.333 1.333 0 00-1.653.666l-.147.3A8.12 8.12 0 017.066 6.96a8.12 8.12 0 01-1.334-1.773L6.012 5a1.333 1.333 0 00.667-1.653 6.887 6.887 0 01-.26-.874c-.033-.146-.06-.3-.08-.453a2 2 0 00-2-1.66h-2a2 2 0 00-2 2.273 12.667 12.667 0 0011.013 10.974h.254a2 2 0 001.827-1.185 2 2 0 00.173-.822v-2a2 2 0 00-1.647-1.933zm.333 4a.666.666 0 01-.482.64.707.707 0 01-.29.026A11.333 11.333 0 011.711 2.48a.727.727 0 01.167-.547.666.666 0 01.5-.226h2a.667.667 0 01.667.526 7.413 7.413 0 00.407 1.573l-.934.434a.667.667 0 00-.327.887A9.66 9.66 0 008.86 9.793a.667.667 0 00.507 0 .667.667 0 00.38-.346l.413-.934c.345.124.696.226 1.053.307.178.04.358.073.54.1a.667.667 0 01.527.667l.013 2.08z" fill="#148BC6"/></svg>