<svg width="20" height="20" fill="none" xmlns="http://www.w3.org/2000/svg"><path d="M10 7.52a2.48 2.48 0 100 4.96 2.48 2.48 0 000-4.96zm9.93-2.45a6.532 6.532 0 00-.42-2.26A4 4 0 0017.19.49a6.53 6.53 0 00-2.26-.42C13.64 0 13.26 0 10 0S6.36 0 5.07.07a6.53 6.53 0 00-2.26.42A4 4 0 00.49 2.81a6.53 6.53 0 00-.42 2.26C0 6.36 0 6.74 0 10s0 3.64.07 4.93a6.86 6.86 0 00.42 2.27c.2.526.51 1.004.91 1.4.398.402.88.713 1.41.91a6.532 6.532 0 002.26.42C6.36 20 6.74 20 10 20s3.64 0 4.93-.07a6.532 6.532 0 002.26-.42 3.89 3.89 0 001.41-.91c.4-.396.71-.874.91-1.4a6.6 6.6 0 00.42-2.27C20 13.64 20 13.26 20 10s0-3.64-.07-4.93zm-2.54 8a5.73 5.73 0 01-.39 1.8A3.86 3.86 0 0114.87 17a5.73 5.73 0 01-1.81.35H6.94A5.73 5.73 0 015.13 17a3.51 3.51 0 01-1.31-.86A3.51 3.51 0 013 14.87a5.49 5.49 0 01-.34-1.81V6.94A5.49 5.49 0 013 5.13a3.51 3.51 0 01.86-1.31c.36-.36.793-.64 1.27-.82a5.73 5.73 0 011.81-.35h6.12a5.73 5.73 0 011.81.35 3.51 3.51 0 011.31.86c.362.359.642.792.82 1.27a5.73 5.73 0 01.35 1.81V10c0 2.06.07 2.27.04 3.06v.01zm-1.6-7.44a2.38 2.38 0 00-1.41-1.41A4 4 0 0013 4H7a4 4 0 00-1.38.26 2.38 2.38 0 00-1.41 1.36A4.27 4.27 0 004 7v6c.01.471.098.938.26 1.38a2.38 2.38 0 001.41 1.41 4.27 4.27 0 001.33.26h6a4 4 0 001.38-.26 2.38 2.38 0 001.41-1.41 4 4 0 00.26-1.38V7c0-.472-.088-.94-.26-1.38v.01zM10 13.82A3.81 3.81 0 016.19 10 3.82 3.82 0 1110 13.82zm4-6.89a.9.9 0 010-1.79.9.9 0 010 1.79z" fill="#878787"/></svg>