<svg width="14" height="14" fill="none" xmlns="http://www.w3.org/2000/svg"><path d="M11.667 4.333h-.666v-2a2 2 0 00-2-2H2.334a2 2 0 00-2 2v8a.667.667 0 00.413.614.666.666 0 00.727-.14l1.873-1.88h.987v.96a2 2 0 002 2h4.613l1.58 1.586a.667.667 0 001.027-.104.666.666 0 00.113-.369V6.333a2 2 0 00-2-2zm-7.333 2v1.26h-1.26a.667.667 0 00-.473.194l-.934.94V2.333a.667.667 0 01.667-.666h6.667a.667.667 0 01.666.666v2H6.334a2 2 0 00-2 2zm8 5.06l-.667-.666a.668.668 0 00-.473-.2h-4.86a.667.667 0 01-.667-.667V6.333a.667.667 0 01.667-.666h5.333a.667.667 0 01.667.666v5.06z" fill="#8E24AA"/></svg>