<svg width="14" height="14" fill="none" xmlns="http://www.w3.org/2000/svg"><path d="M10.452 14c-.257-.044-.516-.077-.771-.131a10.083 10.083 0 01-2.708-1.104 14.409 14.409 0 01-3.566-2.778C2.147 8.626 1.101 7.127.44 5.382a5.979 5.979 0 01-.435-1.97A2.363 2.363 0 01.658 1.6c.394-.4.775-.817 1.199-1.183.655-.56 1.368-.56 2 .026a39.504 39.504 0 011.935 1.945c.473.508.473 1.29 0 1.799-.33.373-.696.713-1.045 1.07-.032.03-.066.055-.124.108a10.154 10.154 0 004.014 3.982l.834-.838a2.11 2.11 0 01.75-.56 1.264 1.264 0 011.372.243c.7.662 1.382 1.342 2.046 2.042a1.33 1.33 0 01.036 1.78c-.42.493-.886.96-1.357 1.411a2.098 2.098 0 01-1.216.54.91.91 0 00-.096.028l-.554.007zm.209-.843c.467.026.923-.153 1.248-.489.315-.329.638-.65.957-.975.04-.04.08-.085.116-.13a.572.572 0 00-.002-.809c-.004-.003-.01-.01-.015-.013-.257-.276-.53-.538-.796-.805-.347-.345-.69-.692-1.041-1.032a.566.566 0 00-.82-.023c-.053.043-.1.092-.149.14-.334.331-.664.665-1 .992a.639.639 0 01-.797.133 10.364 10.364 0 01-.605-.322 10.426 10.426 0 01-2.33-1.934 8.359 8.359 0 01-1.543-2.18c-.2-.438-.156-.65.188-.983.343-.332.71-.685 1.05-1.044a.534.534 0 00.042-.754L5.136 2.9c-.042-.049-.085-.093-.128-.138L3.36 1.116c-.353-.346-.666-.35-1.019 0-.353.35-.685.657-1.006 1.006a1.884 1.884 0 00-.375.56c-.14.447-.146.923-.017 1.373.156.698.402 1.372.732 2.007a13.696 13.696 0 002.132 3.083 13.449 13.449 0 005.382 3.697c.471.177.969.282 1.472.308v.007z" fill="#588559"/></svg>