<svg width="16" height="14" fill="none" xmlns="http://www.w3.org/2000/svg"><path d="M14.844.619A1.365 1.365 0 0013.46.403L1.512 5.226a1.362 1.362 0 00.069 2.545l2.417.841 1.346 4.455c.019.06.045.116.08.168.005.008.012.013.018.022a.658.658 0 00.187.176.656.656 0 00.207.091h.008l.004.003c.045.009.09.013.136.013l.012-.002a.662.662 0 00.2-.035c.016-.005.028-.013.043-.02a.667.667 0 00.137-.076l.1-.086 1.802-1.988 2.687 2.081c.236.184.527.284.827.285a1.37 1.37 0 001.339-1.089l2.175-10.678A1.353 1.353 0 0014.844.62zM6.248 8.824a.663.663 0 00-.182.337l-.206 1.003-.523-1.729 2.71-1.411-1.8 1.8zm5.534 3.536L8.607 9.9a.667.667 0 00-.902.08l-.577.637.204-.992 4.722-4.722a.666.666 0 00-.78-1.062L4.498 7.37l-2.484-.908L14 1.667 11.782 12.36z" fill="#148BC6"/></svg>