<svg width="14" height="16" fill="none" xmlns="http://www.w3.org/2000/svg"><path d="M13.857 9.263c.456-4.015-.219-6.55-1.435-7.695-1.962-1.96-8.596-2.25-10.945.086C.422 2.797.05 4.474.009 6.549c-.04 2.076-.09 5.965 3.374 7.02h.003l-.003 1.612s-.024.653.374.784c.456.154.662-.149 2.08-1.92 2.37.215 4.19-.278 4.396-.35.479-.168 3.186-.543 3.624-4.432zM6.07 12.91s-1.5 1.957-1.966 2.466c-.153.165-.32.15-.318-.178l.011-2.675c-2.935-.88-2.762-4.192-2.73-5.925.031-1.733.334-3.152 1.228-4.108C4.355.467 10.17.92 11.652 2.377c1.81 1.68 1.166 6.428 1.17 6.59-.372 3.246-2.566 3.452-2.97 3.592-.172.06-1.772.491-3.782.35z" fill="#8E24AA"/><path d="M6.9 2.87c-.244 0-.244.4 0 .404 1.901.015 3.467 1.402 3.484 3.946 0 .268.375.265.372-.003-.02-2.742-1.73-4.33-3.856-4.346z" fill="#8E24AA"/><path d="M9.4 6.798c-.006.265.369.278.372.01.032-1.512-.859-2.757-2.532-2.888-.245-.019-.27.384-.026.403C8.665 4.438 9.43 5.475 9.4 6.798zm-.401 1.719c-.315-.19-.635-.072-.767.115l-.277.375c-.14.19-.403.166-.403.166C5.633 8.642 5.12 6.54 5.12 6.54s-.024-.285.152-.437l.346-.3c.173-.144.283-.49.106-.83-.47-.89-.787-1.198-.948-1.434-.17-.221-.424-.271-.688-.121h-.006c-.55.337-1.153.968-.96 1.617.329.685.933 2.867 2.86 4.517.906.78 2.339 1.579 2.947 1.763l.006.01c.6.209 1.182-.446 1.493-1.04v-.005c.138-.287.092-.559-.11-.736a7.5 7.5 0 00-1.32-1.028z" fill="#8E24AA"/><path d="M7.503 5.407c.612.037.908.371.94 1.058.011.269.384.25.372-.018-.04-.897-.487-1.396-1.292-1.443-.245-.015-.268.388-.02.403z" fill="#8E24AA"/></svg>