<svg viewBox="0 0 136 59" xmlns="http://www.w3.org/2000/svg" xmlns:xlink="http://www.w3.org/1999/xlink"><style>:root&gt;svg{display:none}:root&gt;svg:target{display:block}</style><svg fill="none" viewBox="0 0 136 59" id="header-logo" xmlns="http://www.w3.org/2000/svg"><g clip-path="url(#aclip0)"><path d="M51.435 48.748h2.516V35.622h8.193v-2.043h-10.71v15.17zm27.293-13.652c-.783-.488-1.72-.868-2.824-1.13-1.105-.263-2.326-.395-3.672-.395h-6.174v15.17h2.516v-3.904h3.658c1.346 0 2.567-.131 3.672-.386 1.105-.263 2.041-.635 2.824-1.131.783-.49 1.382-1.087 1.8-1.773.416-.694.628-1.474.628-2.343 0-.868-.212-1.649-.629-2.342-.417-.678-1.016-1.277-1.8-1.766zm-.578 5.794a3.4 3.4 0 01-1.141 1.138c-.49.292-1.068.51-1.749.642-.68.132-1.419.205-2.23.205h-4.456v-7.319h4.455c.812 0 1.551.066 2.231.204.68.132 1.259.35 1.749.643.49.291.863.67 1.14 1.138.272.46.41 1.021.41 1.678 0 .65-.131 1.211-.41 1.67zm20.995-5.779c-.783-.693-1.72-1.218-2.824-1.576-1.104-.357-2.304-.54-3.614-.54-1.324 0-2.538.183-3.628.54-1.09.358-2.026.883-2.81 1.576-.782.693-1.389 1.547-1.828 2.568-.439 1.022-.658 2.182-.658 3.488 0 1.32.22 2.488.658 3.503a7.137 7.137 0 001.829 2.553c.783.694 1.72 1.219 2.809 1.576 1.09.358 2.304.54 3.629.54 1.309 0 2.509-.182 3.613-.54 1.105-.357 2.041-.883 2.824-1.576a7.139 7.139 0 001.829-2.553c.439-1.015.658-2.182.658-3.503 0-1.306-.219-2.466-.658-3.488-.439-1.021-1.046-1.875-1.829-2.568zm-.454 8.946c-.35.795-.819 1.444-1.404 1.94a5.627 5.627 0 01-2.056 1.095 8.79 8.79 0 01-2.523.35 8.775 8.775 0 01-2.517-.35 5.626 5.626 0 01-2.056-1.094c-.585-.497-1.053-1.146-1.404-1.941-.351-.796-.527-1.759-.527-2.89 0-1.123.176-2.087.527-2.89.35-.802.82-1.444 1.404-1.94a5.685 5.685 0 012.056-1.095 8.775 8.775 0 012.516-.35c.9 0 1.734.117 2.524.35.783.234 1.47.599 2.056 1.095.585.496 1.053 1.145 1.404 1.94.352.796.527 1.76.527 2.89 0 1.124-.175 2.087-.527 2.89zm26.607 2.656h-6.848V33.579h-2.516v13.134h-6.84V33.579h-2.516v15.17h21.236v-15.17h-2.516v13.134zm10.709-12.843h-2.516v14.878h2.516V33.871z" fill="#578459"/><path d="M22.897 28.924a11.244 11.244 0 00-3.987 2.057c-1.156.941-2.107 2.153-2.86 3.641-.754 1.489-1.236 3.262-1.449 5.32h16.936l2.56 4.808H14.52c.373 4.392 1.814 7.552 4.309 9.47 2.494 1.927 5.735 2.883 9.707 2.883 2.634 0 5.092-.387 7.374-1.168.066-.021.14-.05.205-.073l.9-2.079 4.338-9.033-8.976-16.038a24.003 24.003 0 00-4.645-.438c-1.72-.007-3.329.212-4.836.65z" fill="#F4D64C"/><path d="M9.656 50.923c-1.031-2.379-1.543-5.123-1.543-8.238 0-3.065.512-5.8 1.543-8.201 1.032-2.401 2.466-4.415 4.302-6.042 1.836-1.627 4.038-2.86 6.606-3.707 2.567-.846 5.413-1.27 8.537-1.27.117 0 .226.008.343.008l-5.179-9.252h-2.582c-.022-2.364-.717-7.37-5.648-11.208l-1.214 1.555c4.287 3.334 4.872 7.668 4.887 9.653h-2.612L0 44.75l4.338 9.04 2.26 5.217h10.418a17.52 17.52 0 01-2.992-2.065c-1.88-1.634-3.336-3.633-4.368-6.02z" fill="#F4D64C"/><path d="M22.722 9.5c3.05 2.547 7.344 3.459 11.353 2a11.491 11.491 0 007.41-8.808A11.564 11.564 0 0030.133.693a11.513 11.513 0 00-7.41 8.807z" fill="#588559"/></g><defs><clipPath id="aclip0"><path fill="#fff" d="M0 0h136v59H0z"/></clipPath></defs></svg><svg fill="#588559" viewBox="0 0 16 16" id="user_tub" xmlns="http://www.w3.org/2000/svg"><path d="M10.473 8.473a4 4 0 10-4.946 0 6.667 6.667 0 00-4.147 5.454.67.67 0 001.333.146 5.333 5.333 0 0110.6 0 .667.667 0 00.667.594h.073a.667.667 0 00.587-.734 6.667 6.667 0 00-4.167-5.46zM8 8a2.667 2.667 0 110-5.333A2.667 2.667 0 018 8z"/></svg></svg>