<svg width="136" height="59" viewBox="0 0 136 59" fill="none" xmlns="http://www.w3.org/2000/svg">
<g clip-path="url(#clip0)">
<path d="M51.4346 48.7483H53.9511V35.6218H62.1443V33.5788H51.4346V48.7483Z" fill="#578459"/>
<path d="M78.7278 35.0965C77.9451 34.6076 77.0087 34.2282 75.9041 33.9655C74.7995 33.7028 73.5778 33.5715 72.2318 33.5715H66.0576V48.741H68.5741V44.8374H72.2318C73.5778 44.8374 74.7995 44.706 75.9041 44.4506C77.0087 44.188 77.9451 43.8158 78.7278 43.3197C79.5106 42.8308 80.1104 42.2325 80.5274 41.5466C80.9444 40.8534 81.1565 40.0727 81.1565 39.2044C81.1565 38.3361 80.9444 37.5554 80.5274 36.8622C80.1104 36.1836 79.5106 35.5853 78.7278 35.0965ZM78.1499 40.8899C77.8719 41.3496 77.4915 41.729 77.0087 42.0282C76.5186 42.32 75.9407 42.5389 75.2603 42.6703C74.58 42.8016 73.8412 42.8746 73.0292 42.8746H68.5741V35.5561H73.0292C73.8412 35.5561 74.58 35.6218 75.2603 35.7604C75.9407 35.8918 76.5186 36.1107 77.0087 36.4025C77.4988 36.6944 77.8719 37.0738 78.1499 37.5408C78.4206 38.0005 78.5596 38.5623 78.5596 39.219C78.5596 39.8684 78.4279 40.4302 78.1499 40.8899Z" fill="#578459"/>
<path d="M99.145 35.1111C98.3623 34.4179 97.4259 33.8925 96.3213 33.535C95.2166 33.1775 94.0169 32.9951 92.7075 32.9951C91.3834 32.9951 90.169 33.1775 89.079 33.535C87.9891 33.8925 87.0527 34.4179 86.2699 35.1111C85.4872 35.8042 84.88 36.6579 84.4411 37.6794C84.0022 38.701 83.7827 39.8611 83.7827 41.1672C83.7827 42.4879 84.0022 43.6553 84.4411 44.6696C84.88 45.6838 85.4872 46.5302 86.2699 47.2234C87.0527 47.9165 87.9891 48.4419 89.079 48.7994C90.169 49.1569 91.3834 49.3394 92.7075 49.3394C94.0169 49.3394 95.2166 49.1569 96.3213 48.7994C97.4259 48.4419 98.3623 47.9165 99.145 47.2234C99.9277 46.5302 100.535 45.6838 100.974 44.6696C101.413 43.6553 101.632 42.4879 101.632 41.1672C101.632 39.8611 101.413 38.701 100.974 37.6794C100.535 36.6579 99.9277 35.8042 99.145 35.1111ZM98.6914 44.0566C98.3403 44.852 97.8721 45.5014 97.2869 45.9975C96.7017 46.4937 96.014 46.8585 95.2313 47.092C94.4485 47.3255 93.6073 47.4423 92.7075 47.4423C91.815 47.4423 90.9737 47.3255 90.191 47.092C89.4082 46.8585 88.7206 46.4937 88.1354 45.9975C87.5501 45.5014 87.0819 44.852 86.7308 44.0566C86.3797 43.2613 86.2041 42.2982 86.2041 41.1672C86.2041 40.0435 86.3797 39.0804 86.7308 38.2778C87.0819 37.4751 87.5501 36.833 88.1354 36.3369C88.7279 35.8407 89.4082 35.4759 90.191 35.2424C90.9737 35.0089 91.815 34.8922 92.7075 34.8922C93.6073 34.8922 94.4412 35.0089 95.2313 35.2424C96.014 35.4759 96.7017 35.8407 97.2869 36.3369C97.8721 36.833 98.3403 37.4824 98.6914 38.2778C99.0426 39.0731 99.2182 40.0362 99.2182 41.1672C99.2182 42.2909 99.0426 43.254 98.6914 44.0566Z" fill="#578459"/>
<path d="M125.298 46.7126H118.45V33.5788H115.934V46.7126H109.094V33.5788H106.578V48.7483H127.814V33.5788H125.298V46.7126Z" fill="#578459"/>
<path d="M136.007 33.8706H133.491V48.7483H136.007V33.8706Z" fill="#578459"/>
<path d="M22.8971 28.9236C21.3901 29.3614 20.066 30.0473 18.9102 30.9812C17.7544 31.9225 16.8034 33.1337 16.0499 34.6222C15.2964 36.1107 14.8136 37.8838 14.6015 39.9414H31.5365L34.0969 44.7498H14.521C14.8941 49.1424 16.3352 52.3018 18.8297 54.2208C21.3243 56.1471 24.565 57.1029 28.5372 57.1029C31.1708 57.1029 33.6287 56.7162 35.9111 55.9355C35.977 55.9136 36.0501 55.8844 36.116 55.8625L37.0157 53.783L41.3538 44.7498L32.3778 28.712C30.8928 28.4201 29.3492 28.2742 27.7325 28.2742C26.0134 28.2669 24.4041 28.4858 22.8971 28.9236Z" fill="#F4D64C"/>
<path d="M9.65629 50.9227C8.62482 48.544 8.11274 45.8005 8.11274 42.6849C8.11274 39.6203 8.62482 36.8841 9.65629 34.4836C10.6878 32.083 12.1216 30.0691 13.9577 28.442C15.7939 26.8149 17.9958 25.5818 20.5635 24.7354C23.1312 23.889 25.9769 23.4658 29.1005 23.4658C29.2176 23.4658 29.3273 23.473 29.4444 23.473L24.2651 14.221H21.6828C21.6608 11.8569 20.9658 6.85148 16.0353 3.01349L14.8209 4.56766C19.1077 7.90219 19.693 12.2363 19.7076 14.221H17.096L0 44.7498L4.33801 53.7903L6.59846 59.0073H17.0155C15.9256 58.409 14.9234 57.7158 14.0236 56.9424C12.1435 55.308 10.6878 53.3087 9.65629 50.9227Z" fill="#F4D64C"/>
<path d="M22.7217 9.50011C25.7722 12.0466 30.0663 12.9587 34.0751 11.4994C38.084 10.0473 40.7906 6.60337 41.4856 2.69241C38.4278 0.145914 34.141 -0.75886 30.1321 0.693156C26.1233 2.15247 23.4166 5.59645 22.7217 9.50011Z" fill="#588559"/>
</g>
<defs>
<clipPath id="clip0">
<rect width="136" height="59" fill="white"/>
</clipPath>
</defs>
</svg>
