<svg viewBox="0 0 24 24" fill="none" xmlns="http://www.w3.org/2000/svg">
<path d="M10.1238 4.71436C9.97628 4.71436 9.815 4.75852 9.69527 4.84828C9.57979 4.93489 9.49416 5.05657 9.4542 5.1965V5.20992L7.72652 12.2813V12.2948C7.68069 12.5144 7.76698 12.766 7.94081 12.9108C8.06736 13.0182 8.23259 13.0849 8.39617 13.0849C8.44916 13.0849 8.50508 13.0735 8.57027 13.0582H8.58369L11.5703 12.3216L10.0033 18.7501C10.0025 18.7544 10.0042 18.7592 10.0033 18.7635C9.96789 18.9204 9.98666 19.1082 10.0703 19.2457C10.1568 19.3883 10.3022 19.4942 10.4587 19.5403H10.4721H10.4989C10.5629 19.5529 10.5995 19.5671 10.673 19.5671C10.9247 19.5671 11.186 19.4158 11.3025 19.1921V19.1787L15.923 9.26798C16.017 9.06297 15.9636 8.79476 15.8292 8.61173C15.8181 8.59656 15.8284 8.57204 15.8158 8.55816L15.7087 8.63851L15.8024 8.54476C15.6719 8.41426 15.494 8.33084 15.3069 8.33048C15.2336 8.33048 15.1892 8.34329 15.1328 8.35726L12.2801 9.06709L13.5391 5.65191C13.5433 5.64334 13.5484 5.63386 13.5525 5.62512C13.5886 5.5468 13.6194 5.46842 13.6194 5.37066C13.6194 5.19686 13.5416 5.02026 13.4185 4.90191C13.2916 4.77964 13.1106 4.71441 12.9364 4.71441H10.1239L10.1238 4.71436ZM10.1238 5.30364H12.9363C12.979 5.30364 12.9818 5.30968 13.0033 5.33043C13.0287 5.35486 13.0167 5.35031 13.0167 5.37058C13.0167 5.35335 13.0176 5.35503 13.0033 5.384V5.41078L12.9899 5.4242L11.5301 9.38849L11.3292 9.91081L11.8783 9.77688L15.2801 8.94652C15.3153 8.93778 15.3341 8.9331 15.3069 8.9331C15.3308 8.93315 15.3497 8.93906 15.3738 8.95989C15.376 8.96161 15.3717 8.97125 15.3738 8.97331C15.3895 8.9833 15.4055 8.97355 15.3872 9.01346L10.7667 18.9108C10.7613 18.9212 10.7566 18.9174 10.7533 18.9242C10.7371 18.9575 10.739 18.9644 10.6729 18.9644C10.689 18.9644 10.6507 18.9665 10.6328 18.9644C10.614 18.9588 10.6116 18.955 10.606 18.9509C10.6003 18.9466 10.5979 18.933 10.5926 18.9241C10.5813 18.9057 10.5735 18.9203 10.5792 18.8974L12.2667 11.9733L12.3872 11.4911L11.9051 11.6117L8.43631 12.4822H8.42289C8.45074 12.4749 8.4306 12.4822 8.3961 12.4822C8.35402 12.4822 8.35106 12.474 8.32914 12.4554C8.30685 12.4368 8.3107 12.4376 8.31572 12.4286V12.4152L10.03 5.37055V5.35716C10.0339 5.34653 10.0402 5.34285 10.0568 5.33037C10.0742 5.31735 10.0885 5.30359 10.1238 5.30359L10.1238 5.30364Z" fill="#E54824"/>
</svg>
